{"title":"Mother's Day 2010 DVDrip English Klam","uid":6383106,"size":1340019605,"categoryP":"video","categoryS":"movies","magnet":"?xt=urn:btih:b82944e4597ea0fdfeb9fb2d9e5717d60d7a9269&amp;dn=Mother%5C%27s+Day+2010+DVDrip+English+Klam&amp;tr=udp%3A%2F%2Ftracker.openbittorrent.com%3A80&amp;tr=udp%3A%2F%2Fopen.demonii.com%3A1337&amp;tr=udp%3A%2F%2Ftracker.coppersurfer.tk%3A6969&amp;tr=udp%3A%2F%2Fexodus.desync.com%3A6969","seeders":1,"leechers":4,"uploader":"Klambake","files":-1,"time":1305102974,"description":"With: Rebecca De Mornay, Shawn Ashmore and Briana Evigan\n\nDaniel (Frank Grillo) en Beth Sohapi (Jaime King) hebben een stel vrienden uitgenodigd voor hun house warming, maar lang duurt het feestje niet. Drie losgelagen broers, waarvan ÃƒÂ©ÃƒÂ©n zwaargewond, vallen het huis binnen na een overval die niet volgens plan ging. Om hun schuilplaats geheim te houden zit er niets anders op dan iedereen te gijzelen. Dan is het wachten op hun moeder (Rebecca De Mornay), die door hun zus Lydia (Deborah Ann Woll) naar het huis wordt gebracht om het commando over te nemen. De komst van de keurige dame geeft de gijzelaars nieuwe hoop, maar die verdwijnt als sneeuw voor de zon als ze haar ware, sadistische gezicht laat zien. Iedere poging om een einde aan hun hachelijke situatie te maken wordt snoeihard, bloederig en genadeloos door haar en haar zoons afgestraft...\n\nIn the thriller arriving in theaters April 1, three brothers on the run from the law head for home, only to discover that their mother lost the house in a foreclosure. Mother ingeniously orchestrates her sons' escape, teaching the house's new owners and their guests a few lessons along the way.\n\nGeneral:\n\nComplete name                    : Mother's Day\\Mother.avi\nFormat                           : AVI\nFormat/Info                      : Audio Video Interleave\nFile size                        : 1.25 GiB\nDuration                         : 1h 47mn\nOverall bit rate                 : 1 660 Kbps\n\nVideo:\n\nFormat                           : MPEG-4 Visual\nFormat profile                   : Simple@L3\nFormat settings, BVOP            : No\nFormat settings, QPel            : No\nFormat settings, GMC             : No warppoints\nFormat settings, Matrix          : Default (H.263)\nCodec ID                         : XVID\nCodec ID/Hint                    : XviD\nDuration                         : 1h 47mn\nBit rate                         : 1 201 Kbps\nWidth                            : 720 pixels\nHeight                           : 304 pixels\nDisplay aspect ratio             : 2.35:1\nFrame rate                       : 25.000 fps\nColor space                      : YUV\nChroma subsampling               : 4:2:0\nBit depth                        : 8 bits\nScan type                        : Progressive\nBits/(Pixel*Frame)               : 0.219\nStream size                      : 925 MiB (72%)\nWriting library                  : XviD 1.1.2 (UTC 2006-11-01)\n\nAudio:\n\nFormat                           : AC-3\nFormat/Info                      : Audio Coding 3\nMode extension                   : CM (complete main)\nCodec ID                         : 2000\nDuration                         : 1h 47mn\nBit rate mode                    : Constant\nBit rate                         : 448 Kbps\nChannel(s)                       : 6 channels\nChannel positions                : Front: L C R, Side: L R, LFE\nSampling rate                    : 48.0 KHz\nBit depth                        : 16 bits\nStream size                      : 345 MiB (27%)\nAlignment                        : Aligned on interleaves\nInterleave, duration             : 32 ms (0.80 video frame)\nInterleave, preload duration     : 320 ms\n\n\n\n","torrent":{"xt":"urn:btih:b82944e4597ea0fdfeb9fb2d9e5717d60d7a9269","amp;dn":"Mother%5C%27s+Day+2010+DVDrip+English+Klam","amp;tr":["udp%3A%2F%2Ftracker.openbittorrent.com%3A80","udp%3A%2F%2Fopen.demonii.com%3A1337","udp%3A%2F%2Ftracker.coppersurfer.tk%3A6969","udp%3A%2F%2Fexodus.desync.com%3A6969"],"infoHash":"b82944e4597ea0fdfeb9fb2d9e5717d60d7a9269","infoHashBuffer":{"type":"Buffer","data":[184,41,68,228,89,126,160,253,254,185,251,45,158,87,23,214,13,122,146,105]},"announce":[],"urlList":[]}}